<svg width="434" height="215" viewBox="0 0 434 215" fill="none" xmlns="http://www.w3.org/2000/svg">
<path d="M210.893 346.472C245.339 338.469 234.997 289.578 265.266 274.402C304.868 254.545 367.389 277.88 400.417 251.447C433.939 224.618 437.976 179.892 431.231 141.573C423.936 100.129 402.581 57.48 361.607 30.9617C321.115 4.75514 265.468 -1.9071 214.459 1.27751C169.26 4.09936 136.199 32.0864 95.591 47.5697C56.3329 62.5383 3.8386 61.8192 -20.2782 90.7801C-44.4364 119.791 -40.6439 160.578 -26.7047 194.43C-14.3762 224.37 22.4925 241.705 50.9275 263.705C72.6546 280.515 94.8894 294.998 120.216 308.102C149.567 323.288 178.034 354.106 210.893 346.472Z" fill="#2AB1AD"/>
</svg>
